<?xml version="1.0" encoding="utf-8"?>
<!-- Generator: Adobe Illustrator 25.1.0, SVG Export Plug-In . SVG Version: 6.00 Build 0)  -->
<svg version="1.1" id="레이어_1" xmlns="http://www.w3.org/2000/svg" xmlns:xlink="http://www.w3.org/1999/xlink" x="0px"
	 y="0px" viewBox="0 0 170 890" style="enable-background:new 0 0 170 890;" xml:space="preserve">
<style type="text/css">
	.st0{display:none;}
	.st1{display:inline;}
	.st2{opacity:0.5;fill:#FF0000;enable-background:new    ;}
	.st3{fill:none;}
	.st4{fill:#231815;}
	.st5{fill:#FFFFFF;}
</style>
<g id="레이어_1_1_" class="st0">
	<g id="바탕" class="st1">
		<rect class="st2" width="80" height="80"/>
		<rect x="90" class="st2" width="80" height="80"/>
		<rect y="90" class="st2" width="80" height="80"/>
		<rect x="90" y="90" class="st2" width="80" height="80"/>
		<rect y="180" class="st2" width="80" height="80"/>
		<rect x="90" y="180" class="st2" width="80" height="80"/>
		<rect y="360" class="st2" width="80" height="80"/>
		<rect x="90" y="360" class="st2" width="80" height="80"/>
		<rect y="270" class="st2" width="80" height="80"/>
		<rect x="90" y="270" class="st2" width="80" height="80"/>
		<rect y="450" class="st2" width="80" height="80"/>
		<rect x="90" y="450" class="st2" width="80" height="80"/>
		<rect y="540" class="st2" width="80" height="80"/>
		<rect x="90" y="540" class="st2" width="80" height="80"/>
		<rect y="630" class="st2" width="80" height="80"/>
		<rect x="90" y="630" class="st2" width="80" height="80"/>
		<rect y="720" class="st2" width="80" height="80"/>
		<rect x="90" y="720" class="st2" width="80" height="80"/>
		<rect y="810" class="st2" width="80" height="80"/>
		<rect x="90" y="810" class="st2" width="80" height="80"/>
	</g>
</g>
<g id="비행기">
	<line class="st3" x1="80" y1="170" x2="40" y2="170"/>
	<path class="st4" d="M78.2,95.3L80,90l-5.3,1.8L0.5,116.5l35.8,17.2l17.2,35.8L78.2,95.3z M37.6,128.8l-23.9-11.5l53.1-17.7
		L37.6,128.8z M70.3,103.2l-17.7,53.1l-11.5-23.9L70.3,103.2z"/>
	<g>
		<polygon class="st4" points="164.5,92.4 90.3,117.1 126.1,134.4 143.3,170.2 168,95.9 169.8,90.6 		"/>
	</g>
	<path class="st5" d="M121.1,142.3l-2.8-2.8c-0.2-0.2-0.2-0.4,0-0.6l30.2-30.2c0.9-0.9,2.5-0.9,3.4,0l0,0c0.9,0.9,0.9,2.5,0,3.4
		l-30.2,30.2C121.5,142.5,121.2,142.5,121.1,142.3z"/>
</g>
<g id="추가">
	<g>
		<g>
			<path d="M60,185c8.3,0,15,6.7,15,15v40c0,8.3-6.7,15-15,15H20c-8.3,0-15-6.7-15-15v-40c0-8.3,6.7-15,15-15H60 M60,180H20
				c-11,0-20,9-20,20v40c0,11,9,20,20,20h40c11,0,20-9,20-20v-40C80,189,71,180,60,180L60,180z"/>
		</g>
		<path d="M15,216h50c2.2,0,4,1.8,4,4l0,0c0,2.2-1.8,4-4,4H15c-2.2,0-4-1.8-4-4l0,0C11,217.8,12.8,216,15,216z"/>
		<path d="M44,195v50c0,2.2-1.8,4-4,4h0c-2.2,0-4-1.8-4-4v-50c0-2.2,1.8-4,4-4h0C42.2,191,44,192.8,44,195z"/>
	</g>
	<g>
		<g>
			<path d="M110,257.5c-9.6,0-17.5-7.9-17.5-17.5v-40c0-9.6,7.9-17.5,17.5-17.5h40c9.6,0,17.5,7.9,17.5,17.5v40
				c0,9.6-7.9,17.5-17.5,17.5H110z"/>
			<path d="M150,185c8.3,0,15,6.7,15,15v40c0,8.3-6.7,15-15,15h-40c-8.3,0-15-6.7-15-15v-40c0-8.3,6.7-15,15-15H150 M150,180h-40
				c-11,0-20,9-20,20v40c0,11,9,20,20,20h40c11,0,20-9,20-20v-40C170,189,161,180,150,180L150,180z"/>
		</g>
		<path class="st5" d="M105,216h50c2.2,0,4,1.8,4,4l0,0c0,2.2-1.8,4-4,4h-50c-2.2,0-4-1.8-4-4l0,0C101,217.8,102.8,216,105,216z"/>
		<path class="st5" d="M134,195v50c0,2.2-1.8,4-4,4l0,0c-2.2,0-4-1.8-4-4v-50c0-2.2,1.8-4,4-4l0,0C132.2,191,134,192.8,134,195z"/>
	</g>
</g>
<g id="홈">
	<g>
		<path d="M40,6.2l35,26.2V75H57V58c0-8.3-6.7-15-15-15h-4c-8.3,0-15,6.7-15,15v17H5V32.5L40,6.2 M40,0L0,30v50h28V58
			c0-5.5,4.5-10,10-10h4c5.5,0,10,4.5,10,10v22h28V30L40,0L40,0z"/>
	</g>
	<g>
		<path d="M144.5,77.5V58c0-6.9-5.6-12.5-12.5-12.5h-4c-6.9,0-12.5,5.6-12.5,12.5v19.5h-23V31.2L130,3.1l37.5,28.1v46.2L144.5,77.5
			L144.5,77.5z"/>
		<path d="M130,6.2l35,26.2V75h-18V58c0-8.3-6.7-15-15-15h-4c-8.3,0-15,6.7-15,15v17H95V32.5L130,6.2 M130,0L90,30v50h28V58
			c0-5.5,4.5-10,10-10h4c5.5,0,10,4.5,10,10v22h28V30L130,0L130,0z"/>
	</g>
</g>
<g id="찾기">
	<g>
		<g>
			<path d="M40,275c19.3,0,35,15.7,35,35c0,19.3-15.7,35-35,35c-19.3,0-35-15.7-35-35C5,290.7,20.7,275,40,275 M40,270L40,270
				c-22.1,0-40,17.9-40,40v0c0,22.1,17.9,40,40,40h0c22.1,0,40-17.9,40-40v0C80,287.9,62.1,270,40,270L40,270z"/>
		</g>
		<g>
			<path d="M59.9,289.1l-26.1,14.2L47,316.5l14.2-26.1C61.7,289.5,60.8,288.6,59.9,289.1z"/>
		</g>
		<g>
			<path d="M19.5,329.4l14.2-26.1L47,316.5l-26.1,14.2C20,331.2,19.1,330.3,19.5,329.4z"/>
		</g>
		<g>
			<path class="st5" d="M44.8,307.5L44.8,307.5c-1.1,0-2-0.9-2-2l0,0c0-1.1,0.9-2,2-2h0c1.1,0,2,0.9,2,2l0,0
				C46.8,306.6,45.9,307.5,44.8,307.5z"/>
		</g>
	</g>
	<g>
		<g>
			<path d="M130,270L130,270c22.1,0,40,17.9,40,40v0c0,22.1-17.9,40-40,40h0c-22.1,0-40-17.9-40-40v0C90,287.9,107.9,270,130,270z"
				/>
		</g>
		<g>
			<path class="st5" d="M149.9,289.1l-26.1,14.2l13.2,13.2l14.2-26.1C151.7,289.5,150.8,288.6,149.9,289.1z"/>
		</g>
		<g>
			<path class="st5" d="M109.5,329.4l14.2-26.1l13.2,13.2l-26.1,14.2C110,331.2,109.1,330.3,109.5,329.4z"/>
		</g>
		<path d="M134.8,307.5L134.8,307.5c-1.1,0-2-0.9-2-2l0,0c0-1.1,0.9-2,2-2l0,0c1.1,0,2,0.9,2,2l0,0
			C136.8,306.6,135.9,307.5,134.8,307.5z"/>
	</g>
</g>
<g id="하트">
	<g>
		<path d="M57.5,366c4.4,0,8.6,1.7,11.7,4.8c3.1,3.1,4.8,7.3,4.8,11.7c0,23-24.9,43.5-34,50.2c-9.1-6.7-34-27.1-34-50.2
			c0-9.1,7.4-16.5,16.5-16.5c5,0,9.7,2.2,12.8,6.1l4.7,5.8l4.7-5.8C47.8,368.2,52.5,366,57.5,366 M57.5,360
			c-7.1,0-13.4,3.3-17.5,8.4c-4.1-5.1-10.4-8.4-17.5-8.4C10.1,360,0,370.1,0,382.5C0,414.1,40,440,40,440s40-25.9,40-57.5
			C80,370.1,69.9,360,57.5,360L57.5,360z"/>
	</g>
	<path d="M147.5,360c-7.1,0-13.4,3.3-17.5,8.4c-4.1-5.1-10.4-8.4-17.5-8.4c-12.4,0-22.5,10.1-22.5,22.5c0,31.6,40,57.5,40,57.5
		s40-25.9,40-57.5C170,370.1,159.9,360,147.5,360z"/>
</g>
</svg>
