<?xml version="1.0" encoding="utf-8"?>
<!-- Generator: Adobe Illustrator 25.1.0, SVG Export Plug-In . SVG Version: 6.00 Build 0)  -->
<svg version="1.1" xmlns="http://www.w3.org/2000/svg" xmlns:xlink="http://www.w3.org/1999/xlink" x="0px" y="0px"
	 viewBox="0 0 630 790" style="enable-background:new 0 0 630 790;" xml:space="preserve">
<style type="text/css">
	.st0{display:none;}
	.st1{display:inline;opacity:0.5;}
	.st2{fill:#FF3000;}
	.st3{fill:#040000;}
	.st4{fill:#FFFFFF;}
	.st5{fill:#070102;}
	.st6{fill:#231815;}
</style>
<g id="레이어_1" class="st0">
	<g class="st1">
		<rect y="0" class="st2" width="150" height="150"/>
	</g>
	<g class="st1">
		<rect x="160" class="st2" width="150" height="150"/>
	</g>
	<g class="st1">
		<rect x="320" class="st2" width="150" height="150"/>
	</g>
	<g class="st1">
		<rect x="480" class="st2" width="150" height="150"/>
	</g>
	<g class="st1">
		<rect y="160" class="st2" width="150" height="150"/>
	</g>
	<g class="st1">
		<rect x="160" y="160" class="st2" width="150" height="150"/>
	</g>
	<g class="st1">
		<rect x="320" y="160" class="st2" width="150" height="150"/>
	</g>
	<g class="st1">
		<rect x="480" y="160" class="st2" width="150" height="150"/>
	</g>
	<g class="st1">
		<rect y="320" class="st2" width="150" height="150"/>
	</g>
	<g class="st1">
		<rect x="160" y="320" class="st2" width="150" height="150"/>
	</g>
	<g class="st1">
		<rect x="320" y="320" class="st2" width="150" height="150"/>
	</g>
	<g class="st1">
		<rect x="480" y="320" class="st2" width="150" height="150"/>
	</g>
	<g class="st1">
		<rect y="480" class="st2" width="150" height="150"/>
	</g>
	<g class="st1">
		<rect x="160" y="480" class="st2" width="150" height="150"/>
	</g>
	<g class="st1">
		<rect x="320" y="480" class="st2" width="150" height="150"/>
	</g>
	<g class="st1">
		<rect x="480" y="480" class="st2" width="150" height="150"/>
	</g>
	<g class="st1">
		<rect y="640" class="st2" width="150" height="150"/>
	</g>
	<g class="st1">
		<rect x="160" y="640" class="st2" width="150" height="150"/>
	</g>
	<g class="st1">
		<rect x="320" y="640" class="st2" width="150" height="150"/>
	</g>
	<g class="st1">
		<rect x="480" y="640" class="st2" width="150" height="150"/>
	</g>
</g>
<g id="홈">
	<g>
		<path d="M75,12l65,43.3V140h-35v-32.5c0-16.5-13.5-30-30-30c-16.5,0-30,13.5-30,30V140H10V55.4L75,12 M75,0L0,50v100h55v-42.5
			c0-11,9-20,20-20h0c11,0,20,9,20,20V150h55V50L75,0L75,0z"/>
	</g>
	<g>
		<path d="M235,0l-75,50v100h55v-42.5c0-11,9-20,20-20h0c11,0,20,9,20,20V150h55V50L235,0z"/>
	</g>
</g>
<g id="비행기">
	<g>
		<g>
			<path class="st3" d="M447,19.2L404,119.4L390,82.1l-1.6-4.3l-4.3-1.6l-37.3-13.9L447,19.2 M466.1,0.1L320,63l60.7,22.7l22.7,60.7
				L466.1,0.1L466.1,0.1z"/>
		</g>
		<g>
			<rect x="368.6" y="41.3" transform="matrix(0.7071 -0.7071 0.7071 0.7071 88.7685 309.1887)" width="98.1" height="12.3"/>
		</g>
	</g>
	<g>
		<g>
			<polygon class="st3" points="630,0 480,65.4 541.9,88.1 564.6,150 			"/>
		</g>
		<g>
			<path class="st4" d="M532.4,99.1l-1.8-1.8c-2-2-2-5.1,0-7.1l58.6-58.6c2-2,5.1-2,7.1,0l1.8,1.8c2,2,2,5.1,0,7.1l-58.6,58.6
				C537.6,101.1,534.4,101.1,532.4,99.1z"/>
		</g>
	</g>
</g>
<g id="추가">
	<g>
		<g>
			<path d="M130,170c5.5,0,10,4.5,10,10v110c0,5.5-4.5,10-10,10H20c-5.5,0-10-4.5-10-10V180c0-5.5,4.5-10,10-10H130 M130,160H20
				c-11,0-20,9-20,20v110c0,11,9,20,20,20h110c11,0,20-9,20-20V180C150,169,141,160,130,160L130,160z"/>
		</g>
		<path class="st5" d="M83.5,285h-17c-2.2,0-4-1.8-4-4v-92c0-2.2,1.8-4,4-4h17c2.2,0,4,1.8,4,4v92C87.5,283.2,85.7,285,83.5,285z"/>
		<path class="st5" d="M125,226.5v17c0,2.2-1.8,4-4,4H29c-2.2,0-4-1.8-4-4v-17c0-2.2,1.8-4,4-4h92C123.2,222.5,125,224.3,125,226.5z
			"/>
	</g>
	<g>
		<g>
			<path d="M180,160h110c11,0,20,9,20,20v110c0,11-9,20-20,20H180c-11,0-20-9-20-20V180C160,169,169,160,180,160z"/>
		</g>
		<path class="st4" d="M243.5,285h-17c-2.2,0-4-1.8-4-4v-92c0-2.2,1.8-4,4-4h17c2.2,0,4,1.8,4,4v92C247.5,283.2,245.7,285,243.5,285
			z"/>
		<path class="st4" d="M285,226.5v17c0,2.2-1.8,4-4,4h-92c-2.2,0-4-1.8-4-4v-17c0-2.2,1.8-4,4-4h92C283.2,222.5,285,224.3,285,226.5
			z"/>
	</g>
</g>
<g id="나침반">
	<g>
		<path class="st6" d="M431.3,197.3l-49.9,24l27.2,27.2l24-49.9C433.1,197.8,432.2,196.9,431.3,197.3z"/>
		<path class="st6" d="M358.7,272.7l49.9-24l-27.2-27.2l-24,49.9C356.9,272.2,357.8,273.1,358.7,272.7z"/>
		<circle class="st4" cx="407.5" cy="222.5" r="7.5"/>
		<g>
			<path d="M395,170c35.8,0,65,29.2,65,65s-29.2,65-65,65s-65-29.2-65-65S359.2,170,395,170 M395,160c-41.4,0-75,33.6-75,75
				s33.6,75,75,75s75-33.6,75-75S436.4,160,395,160L395,160z"/>
		</g>
	</g>
	<g>
		<circle cx="555" cy="235" r="75"/>
		<path class="st4" d="M591.3,197.3l-49.9,24l27.2,27.2l24-49.9C593.1,197.8,592.2,196.9,591.3,197.3z"/>
		<path class="st4" d="M518.7,272.7l49.9-24l-27.2-27.2l-24,49.9C516.9,272.2,517.8,273.1,518.7,272.7z"/>
		<circle cx="567.5" cy="222.5" r="7.5"/>
	</g>
</g>
<g id="하트">
	<g>
		<path d="M111.2,330c15.9,0,28.8,12.9,28.8,28.8c0,27.6-11.5,53.1-34.1,75.8c-12.2,12.1-24.5,20.2-30.9,24
			c-6.4-3.8-18.7-11.9-30.9-24C21.5,411.9,10,386.4,10,358.8c0-15.9,12.9-28.8,28.8-28.8c11.9,0,22.7,7.5,26.9,18.6l9.4,24.7
			l9.4-24.7C88.6,337.5,99.4,330,111.2,330 M111.2,320c-16.6,0-30.7,10.4-36.2,25c-5.5-14.6-19.7-25-36.2-25
			C17.3,320,0,337.3,0,358.8C0,432.5,75,470,75,470s75-37.5,75-111.2C150,337.3,132.7,320,111.2,320L111.2,320z"/>
	</g>
	<g>
		<path d="M271.2,319.6c-16.6,0-30.7,10.4-36.3,25.1c-5.5-14.7-19.7-25.1-36.3-25.1c-21.4,0-38.8,17.4-38.8,38.8
			c0,73.8,75.1,111.4,75.1,111.4S310,432.2,310,358.4C310,336.9,292.6,319.6,271.2,319.6z"/>
	</g>
</g>
<g id="사람">
	<g>
		<g>
			<path d="M395,405c21.1,0,41,10.4,53.1,27.5C436,449.6,416.1,460,395,460s-41-10.4-53.1-27.5C354,415.4,373.9,405,395,405
				 M395,395L395,395c-27.8,0-52,15.1-64.9,37.5c13,22.4,37.2,37.5,64.9,37.5c27.8,0,52-15.1,64.9-37.5C447,410.1,422.8,395,395,395
				L395,395z"/>
		</g>
		<g>
			<path d="M395,350c8.3,0,15,6.7,15,15c0,8.3-6.7,15-15,15c-8.3,0-15-6.7-15-15C380,356.7,386.7,350,395,350 M395,340
				c-13.8,0-25,11.2-25,25c0,13.8,11.2,25,25,25c13.8,0,25-11.2,25-25C420,351.2,408.8,340,395,340L395,340z"/>
		</g>
		<g>
			<path d="M395,330c35.8,0,65,29.2,65,65s-29.2,65-65,65s-65-29.2-65-65S359.2,330,395,330 M395,320c-41.4,0-75,33.6-75,75
				c0,41.4,33.6,75,75,75s75-33.6,75-75C470,353.6,436.4,320,395,320L395,320z"/>
		</g>
	</g>
	<g>
		<circle cx="555" cy="395" r="75"/>
		<g>
			<path class="st4" d="M555,350c8.3,0,15,6.7,15,15c0,8.3-6.7,15-15,15c-8.3,0-15-6.7-15-15C540,356.7,546.7,350,555,350 M555,340
				c-13.8,0-25,11.2-25,25c0,13.8,11.2,25,25,25c13.8,0,25-11.2,25-25C580,351.2,568.8,340,555,340L555,340z"/>
		</g>
		<path class="st4" d="M559.3,469.9c1.1-0.1,2.2-0.1,3.3-0.2c0,0,0.1,0,0.1,0c1.1-0.1,2.2-0.3,3.3-0.4c0.3,0,0.6-0.1,0.9-0.1
			c1-0.2,2-0.3,3-0.5c0.1,0,0.2,0,0.3-0.1c1-0.2,2.1-0.5,3.1-0.7c0.3-0.1,0.7-0.2,1-0.3c0.9-0.2,1.7-0.5,2.6-0.7
			c0.2-0.1,0.4-0.1,0.7-0.2c0.9-0.3,1.9-0.6,2.8-0.9c0.4-0.1,0.7-0.3,1.1-0.4c0.7-0.3,1.4-0.5,2.1-0.8c0.4-0.2,0.8-0.3,1.2-0.5
			c0.8-0.3,1.5-0.7,2.3-1c0.4-0.2,0.8-0.4,1.3-0.6c0.5-0.3,1.1-0.5,1.6-0.8c0.6-0.3,1.2-0.7,1.9-1c0.5-0.3,1.1-0.6,1.6-0.9
			c0.5-0.3,0.9-0.6,1.4-0.9c0.4-0.2,0.8-0.5,1.1-0.7c0.9-0.6,1.7-1.1,2.6-1.7c0.3-0.2,0.6-0.4,0.8-0.6c0.5-0.4,1-0.8,1.6-1.2
			c0.2-0.2,0.5-0.4,0.7-0.6c1.1-0.9,2.2-1.7,3.2-2.7c0,0,0.1,0,0.1-0.1c0.6-0.5,1.1-1,1.6-1.5c0.1-0.1,0.2-0.2,0.4-0.3
			c1.7-1.6,3.2-3.2,4.7-5c0,0,0.1-0.1,0.1-0.1C623,431,630,413.8,630,395c0-41.4-33.6-75-75-75c-41.4,0-75,33.6-75,75
			c0,13.7,3.7,26.5,10.1,37.5v0c0,0,0,0,0,0c1.2,2.1,2.5,4.1,3.9,6.1c0,0,0,0,0,0c1.4,1.9,2.9,3.8,4.4,5.6c0,0.1,0.1,0.1,0.1,0.2
			c1.5,1.7,3.1,3.4,4.7,4.9c0.1,0.1,0.2,0.2,0.4,0.4c0.5,0.5,1.1,1,1.6,1.5c0,0,0.1,0.1,0.1,0.1c1,0.9,2.1,1.8,3.2,2.6
			c0.2,0.2,0.5,0.4,0.7,0.6c0.5,0.4,1,0.8,1.5,1.2c0.3,0.2,0.6,0.4,0.9,0.6c0.8,0.6,1.7,1.2,2.5,1.7c0.4,0.2,0.8,0.5,1.1,0.7
			c0.5,0.3,0.9,0.6,1.4,0.9c0.5,0.3,1.1,0.6,1.6,0.9c0.6,0.3,1.2,0.7,1.8,1c0.5,0.3,1.1,0.6,1.6,0.8c0.4,0.2,0.8,0.4,1.3,0.6
			c0.7,0.4,1.5,0.7,2.3,1c0.4,0.2,0.8,0.3,1.2,0.5c0.7,0.3,1.4,0.6,2.1,0.8c0.4,0.1,0.7,0.3,1.1,0.4c0.9,0.3,1.9,0.7,2.8,0.9
			c0.2,0.1,0.4,0.1,0.7,0.2c0.9,0.3,1.7,0.5,2.6,0.7c0.3,0.1,0.6,0.2,1,0.3c1,0.3,2.1,0.5,3.1,0.7c0.1,0,0.2,0,0.3,0.1
			c1,0.2,2,0.4,3,0.5c0.3,0,0.6,0.1,0.9,0.1c1.1,0.2,2.2,0.3,3.3,0.4c0,0,0.1,0,0.1,0c1.1,0.1,2.2,0.2,3.3,0.2c0.3,0,0.6,0,0.9,0
			c1.1,0.1,2.3,0.1,3.4,0.1h0l0,0c0,0,0,0,0,0c1.2,0,2.3,0,3.4-0.1C558.7,469.9,559,469.9,559.3,469.9z M597.5,440.7
			c-8.7,8.1-19.7,13.6-31.5,15.8c-0.1,0-0.2,0-0.2,0c-1,0.2-2.1,0.3-3.1,0.5c-0.2,0-0.4,0.1-0.6,0.1c-0.9,0.1-1.9,0.2-2.8,0.3
			c-0.2,0-0.5,0-0.7,0.1c-1.2,0.1-2.3,0.1-3.5,0.1c0,0,0,0,0,0c-1.2,0-2.3,0-3.5-0.1c-0.3,0-0.5,0-0.7-0.1c-1-0.1-1.9-0.1-2.8-0.3
			c-0.2,0-0.4-0.1-0.6-0.1c-1-0.1-2.1-0.3-3.1-0.5c-0.1,0-0.2,0-0.2,0c-11.8-2.1-22.7-7.7-31.5-15.8c-0.2-0.2-0.3-0.3-0.5-0.5
			c-0.6-0.6-1.2-1.2-1.8-1.8c-0.3-0.3-0.5-0.5-0.8-0.8c-0.5-0.5-1-1.1-1.5-1.6c-0.3-0.3-0.6-0.6-0.8-1c-0.5-0.6-0.9-1.2-1.4-1.8
			c-0.2-0.3-0.4-0.5-0.6-0.8c11.7-15.6,30.3-25,50-25c19.7,0,38.2,9.4,50,25c-0.2,0.3-0.4,0.5-0.6,0.8c-0.5,0.6-0.9,1.2-1.4,1.8
			c-0.3,0.3-0.6,0.6-0.8,1c-0.5,0.6-1,1.1-1.5,1.6c-0.3,0.3-0.5,0.5-0.8,0.8c-0.6,0.6-1.2,1.2-1.8,1.8
			C597.9,440.4,597.7,440.6,597.5,440.7z M492.5,395c0-34.5,28-62.5,62.5-62.5s62.5,28,62.5,62.5c0,9.3-2.1,18.1-5.7,26
			c-13.7-15.9-34.1-26-56.8-26h0c-22.7,0-43,10.1-56.8,26C494.6,413.1,492.5,404.3,492.5,395z"/>
	</g>
</g>
<g id="북마크">
	<g>
		<path class="st3" d="M140,490v115.9l-57.9-57.9l-7.1-7.1l-7.1,7.1L10,605.9V490H140 M145,480H5c-2.8,0-5,2.2-5,5v145l75-75l75,75
			V485C150,482.2,147.8,480,145,480L145,480z"/>
	</g>
	<path class="st3" d="M165,480h140c2.8,0,5,2.2,5,5v145l-75-75l-75,75V485C160,482.2,162.2,480,165,480z"/>
</g>
</svg>
