<?xml version="1.0" encoding="utf-8"?>
<!-- Generator: Adobe Illustrator 25.1.0, SVG Export Plug-In . SVG Version: 6.00 Build 0)  -->
<svg
	version="1.1"
	id="layer"
	xmlns="http://www.w3.org/2000/svg"
	xmlns:xlink="http://www.w3.org/1999/xlink"
	x="0px"
	y="0px"	
	viewBox="0 0 40 40"
	style="enable-background:new 0 0 40 40;"
	xml:space="preserve"
	width="current"
	height="current"
>
	<g>
		<g>
			<path
				d="M20,4c8.8,0,16,7.2,16,16s-7.2,16-16,16S4,28.8,4,20S11.2,4,20,4 M20,0L20,0C9,0,0,9,0,20l0,0c0,11,9,20,20,20l0,0c11,0,20-9,20-20l0,0C40,9,31,0,20,0L20,0z"
				fill="current"
			/>
		</g>
		<g>
			<path
				d="M27.8,10.9l-11.1,5.8l6.6,6.6l5.8-11.1C29.6,11.4,28.6,10.4,27.8,10.9z M22,20c-1.1,0-2-0.9-2-2s0.9-2,2-2s2,0.9,2,2S23.1,20,22,20z"
				fill="current"
			/>
			<path
				d="M10.8,27.7c-0.5,0.9,0.5,1.8,1.4,1.4l11.1-5.8l-6.6-6.6L10.8,27.7z"
				fill="current"
			/>
		</g>
	</g>
</svg>
