<?xml version="1.0" encoding="utf-8"?>

<svg
	version="1.1"
	id="layer"
	xmlns="http://www.w3.org/2000/svg"
	xmlns:xlink="http://www.w3.org/1999/xlink"
	x="0px"
	y="0px"
	viewBox="0 0 80 40"
	style="enable-background:new 0 0 80 40;"
	xml:space="preserve"
>
	<style type="text/css">
		.st0{fill:#FFFFFF;}
	</style>
	<g>
		<path d="M6.3,24c-1.8,0-3.3-1.3-3.3-3V5c0-1.7,1.4-3,3.3-3h67.3c1.8,0,3.3,1.3,3.3,3v16c0,1.7-1.4,3-3.3,3H6.3z"/>
		<path d="M73.7,3c1.2,0,2.2,0.9,2.2,2v16c0,1.1-1,2-2.2,2H6.3c-1.2,0-2.2-0.9-2.2-2V5c0-1.1,1-2,2.2-2H73.7 M73.7,1H6.3
			C4,1,2,2.8,2,5v16c0,2.2,2,4,4.3,4h67.3c2.4,0,4.3-1.8,4.3-4V5C78,2.8,76,1,73.7,1L73.7,1z"/>
	</g>
	<path d="M56.7,38c-0.2,0-0.5-0.2-0.6-0.5l-7.1-18c0-0.1,0-0.1,0-0.1s0.1,0,0.1,0.1l18,7.1c0.3,0.1,0.5,0.4,0.5,0.6l-7.5,3.2L56.7,38
		z"/>
	<path class="st0" d="M50.8,21.1l14.7,5.8L60,29.4l-0.7,0.3L59,30.4l-2.5,5.5L50.8,21.1 M49,18.3c-0.7,0-1.2,0.7-0.8,1.5l7.1,18
		c0.3,0.7,1,1.2,1.6,1.2c0.3,0,0.5-0.1,0.7-0.3l3.4-7.6l7.6-3.4c0.6-0.6,0.1-1.9-0.9-2.3l-18-7.1C49.3,18.4,49.1,18.3,49,18.3
		L49,18.3z"/>
	<g>
		<g>
			<path class="st0" d="M11.1,16c0-0.9-0.4-1.3-1.3-1.7L9,13.9c-2.2-1.1-3.4-2.1-3.4-4.2c0-2.2,1.7-3.5,4.6-3.5
				c1.3,0,2.7,0.3,3.6,0.9l-0.2,2.6h-1.9L11.4,7l1.6,0.5v0.9c-1-0.6-1.7-1-2.6-1C9.5,7.4,8.7,8,8.7,8.8c0,0.9,0.5,1.3,1.5,1.8
				l0.9,0.4c2.3,1.1,3.2,2.1,3.2,3.9c0,2.1-1.6,3.7-4.9,3.7c-1.4,0-3-0.3-4.1-0.9L5.5,15h1.9l0.5,3l-1.5-0.4v-0.9
				c1.2,0.5,1.9,0.8,3.1,0.8C10.6,17.5,11.1,16.8,11.1,16z"/>
			<path class="st0" d="M15.3,7.6V6.6h6.1v1.1l-2.8,0.3H18L15.3,7.6z M18.6,17l2.8,0.3v1.1h-6.1v-1.1L18,17H18.6z M16.5,12.2
				c0-1.9,0-3.7-0.1-5.6h3.7c-0.1,1.8-0.1,3.7-0.1,5.6v0.6c0,1.9,0,3.7,0.1,5.6h-3.7c0.1-1.8,0.1-3.7,0.1-5.6V12.2z"/>
			<path class="st0" d="M23.2,7.2l1,0.5l-1.9-0.1V6.6h4.6l6.1,8.3v3.4h-1.9L23.2,7.2z M22.3,17.3l1.9-0.3h0.6l2.4,0.3v1.1h-4.9V17.3z
				M23.8,6.6l1.3,1.1v10.7h-1.3V6.6z M29.6,6.6h4.9v1.1l-1.8,0.3h-0.6l-2.5-0.3V6.6z M31.7,6.6H33v11.7l-1.3-1.3V6.6z"/>
			<path class="st0" d="M45.8,17.6c-1.3,0.7-2.5,1-4.1,1c-3.7,0-6.3-2.2-6.3-6.3c0-3.9,2.3-6.2,6.6-6.2c1.1,0,2.4,0.3,3.4,0.8
				l0.1,2.9H44L43.3,7l1.3,0.2v0.9c-0.8-0.6-1.5-0.8-2.2-0.8c-1.7,0-3.3,1.5-3.3,5.1s1.5,5.2,3.2,5.2c0.6,0,1.1-0.2,1.7-0.6l-1.6,1.3
				v-1.5c0-1.5,0-2.8-0.1-4.4h3.5c0,1.5-0.1,2.9-0.1,4.4V17.6z M41,13.5v-1.1h5.8v1.1l-2.2,0.3h-1.5L41,13.5z"/>
			<path class="st0" d="M51.2,7.6V6.6h6.2v1.1l-2.8,0.3H54L51.2,7.6z M58.4,16.9c1.4,0,2.4-1,2.4-3.6V6.6H62v6.6
				c0,3.8-1.7,5.5-4.9,5.5c-2.7,0-4.7-1.3-4.7-4.8v-2c0-1.7,0-3.5-0.1-5.3h3.7C56,8.3,56,10.1,56,11.9v1.4
				C56,15.9,56.7,16.9,58.4,16.9z M61.1,7.8l-1.9-0.1V6.6h4.3v1.1l-1.8,0.1H61.1z"/>
			<path class="st0" d="M64.4,7.6V6.6h3v1.3h-0.3L64.4,7.6z M68.1,17l2.7,0.3v1.1h-6.4v-1.1l2.7-0.3H68.1z M65.7,12.2
				c0-1.9,0-3.7-0.1-5.6h3.7c-0.1,1.8-0.1,3.7-0.1,5.6v1.1c0,1.3,0,3.2,0.1,5.1h-3.7c0.1-1.8,0.1-3.7,0.1-5.6V12.2z M69.6,13.9h-2.1
				v-1.1h2c1.3,0,2.1-1.1,2.1-2.7s-0.8-2.4-2.2-2.4h-2V6.6h1.9c4.1,0,5.5,1.4,5.5,3.5C74.8,12.2,73.6,13.9,69.6,13.9z"/>
		</g>
	</g>
</svg>
