<?xml version="1.0" encoding="utf-8"?>
<!-- Generator: Adobe Illustrator 25.1.0, SVG Export Plug-In . SVG Version: 6.00 Build 0)  -->
<svg
	version="1.1"
	id="layer"
	xmlns="http://www.w3.org/2000/svg"
	xmlns:xlink="http://www.w3.org/1999/xlink"
	x="0px"
	y="0px"
	viewBox="0 0 40 40"
	style="enable-background:new 0 0 40 40;"
	xml:space="preserve"
	width="current"
	height="current"
>
	<path
		d="M34,7v26c0,1.1-0.9,2-2,2H6c0,1.1,0.9,2,2,2h26c1.1,0,2-0.9,2-2V9C36,7.9,35.1,7,34,7z"
		fill="current"
	/>
	<path
		d="M31,33H5c-1.1,0-2-0.9-2-2V5c0-1.1,0.9-2,2-2h26c1.1,0,2,0.9,2,2v26C33,32.1,32.1,33,31,33z"
		fill="current"
	/>
</svg>
