<?xml version="1.0" encoding="utf-8"?>
<!-- Generator: Adobe Illustrator 25.1.0, SVG Export Plug-In . SVG Version: 6.00 Build 0)  -->
<svg
	version="1.1"
	id="layer"
	xmlns="http://www.w3.org/2000/svg"
	xmlns:xlink="http://www.w3.org/1999/xlink"
	x="0px"
	y="0px"
	viewBox="0 0 40 40"
	style="enable-background:new 0 0 40 40;"
	xml:space="preserve"
	width="current"
	height="current"
>
	<g> 
		<path
			d="M35,0H5C2.2,0,0,2.2,0,5v30c0,2.8,2.2,5,5,5h30c2.8,0,5-2.2,5-5V5C40,2.2,37.8,0,35,0z M36,35c0,0.6-0.4,1-1,1H5c-0.6,0-1-0.4-1-1V5c0-0.6,0.4-1,1-1h30c0.6,0,1,0.4,1,1V35z"
			fill="current"
		/>
		<path
			d="M29,17h-6v-6c0-1.7-1.3-3-3-3s-3,1.3-3,3v6h-6c-1.7,0-3,1.3-3,3s1.3,3,3,3h6v6c0,1.7,1.3,3,3,3s3-1.3,3-3v-6h6c1.7,0,3-1.3,3-3S30.7,17,29,17z"
			fill="current"
		/>
	</g>
</svg>
