<?xml version="1.0" encoding="utf-8"?>

<svg
	version="1.1"
	id="layer"
	xmlns="http://www.w3.org/2000/svg"
	xmlns:xlink="http://www.w3.org/1999/xlink"
	x="0px"
	y="0px"
	viewBox="0 0 40 40"
	xml:space="preserve"
	width="current"
	height="current"
>
	<g>
		<g>
			<path
				d="M34,6v28H6V6H34 M37,2H3C2.4,2,2,2.4,2,3v34c0,0.6,0.4,1,1,1h34c0.6,0,1-0.4,1-1V3C38,2.4,37.6,2,37,2L37,2z"
				fill="current"
				/>
		</g>
		<g>
			<path
				d="M20,26c4.4,0,8,3.6,8,8l-16,0C12,29.6,15.6,26,20,26 M20,22L20,22c-6.6,0-12,5.4-12,12v4h24v-4C32,27.4,26.6,22,20,22L20,22z"
				fill="current"
				/>
		</g>
		<g>
			<path
				d="M20,11c1.7,0,3,1.3,3,3c0,1.7-1.3,3-3,3c-1.7,0-3-1.3-3-3C17,12.3,18.3,11,20,11 M20,7L20,7c-3.9,0-7,3.1-7,7v0c0,3.9,3.1,7,7,7h0c3.9,0,7-3.1,7-7v0C27,10.1,23.9,7,20,7L20,7z"
				fill="current"
				/>
		</g>
	</g>
</svg>
